<?xml version="1.0" encoding="utf-8"?>
<!-- Generator: Adobe Illustrator 17.1.0, SVG Export Plug-In . SVG Version: 6.00 Build 0)  -->
<!DOCTYPE svg PUBLIC "-//W3C//DTD SVG 1.1//EN" "http://www.w3.org/Graphics/SVG/1.1/DTD/svg11.dtd">
<svg version="1.1" id="Layer_1" xmlns="http://www.w3.org/2000/svg" xmlns:xlink="http://www.w3.org/1999/xlink" x="0px" y="0px"
	 viewBox="0 0 339.275 160.405" enable-background="new 0 0 339.275 160.405" xml:space="preserve">
<polygon fill="#FFFFFF" points="333.21,53.242 334.035,53.723 332.53,56.311 333.074,56.629 334.581,54.041 335.405,54.521 
	335.695,54.021 333.501,52.744 "/>
<polygon fill="#FFFFFF" points="338.748,55.799 336.868,57.117 337.072,54.822 336.542,54.516 334.746,57.6 335.291,57.918 
	336.368,56.069 336.24,57.744 336.632,57.973 338.007,57.029 336.933,58.875 336.978,58.9 337.478,59.191 339.275,56.105 "/>
<polygon fill="#FFFFFF" points="27.764,97.334 0,48.133 30.437,30.959 35.065,39.159 13.936,51.08 21.315,64.156 40.817,53.151 
	45.445,61.352 25.942,72.357 37.072,92.082 "/>
<path fill="#FFFFFF" d="M91.085,8.729l12.311,38.185c2.733,8.477,0.521,17.925-14.576,22.791
	c-15.096,4.869-22.41-1.509-25.143-9.984L51.366,21.535l10.172-3.279l12.051,37.377c1.692,5.248,5.157,7.43,12.344,5.112
	c7.184-2.317,8.724-6.112,7.031-11.358L80.913,12.008L91.085,8.729z"/>
<polygon fill="#FFFFFF" points="134.595,49.342 157.731,47.145 158.622,56.52 124.844,59.726 119.505,3.486 130.145,2.475 "/>
<polygon fill="#FFFFFF" points="180.867,10.683 165.142,9.385 165.916,0 208.019,3.473 207.244,12.857 191.519,11.56 187.65,58.48 
	176.998,57.602 "/>
<path fill="#FFFFFF" d="M254.753,56.85c-2.625,9.044-10.061,15.187-25.374,10.744c-15.316-4.444-18.308-13.615-15.684-22.656
	l6.524-22.483c2.623-9.045,10.06-15.187,25.375-10.744c15.314,4.443,18.306,13.614,15.682,22.656L254.753,56.85z M224.125,47.346
	c-1.49,5.133,0.218,8.984,7.876,11.205c7.658,2.222,11.162-0.117,12.651-5.248l6.192-21.344c1.49-5.133-0.219-8.984-7.876-11.206
	c-7.658-2.222-11.161,0.118-12.651,5.249L224.125,47.346z"/>
<polygon fill="#FFFFFF" points="292.46,45.465 271.57,82.859 262.461,77.773 290.009,28.452 302.452,35.402 300.256,83.338 
	321.187,45.867 330.296,50.955 302.748,100.275 290.307,93.326 "/>
<path fill="#4AA948" d="M151.428,110.717l-6.167-2.006l-0.026,0.084c-1.217,3.742,0.832,7.762,4.574,8.976l6.168,2.006l0.027-0.084
	C157.219,115.953,155.171,111.933,151.428,110.717"/>
<path fill="#4AA948" d="M146.237,126.695l-6.168-2.004l0.026-0.084c1.217-3.742,5.238-5.787,8.979-4.573l6.169,2.004l-0.028,0.083
	C153.999,125.863,149.981,127.912,146.237,126.695"/>
<path fill="#4AA948" d="M139.208,108.555l-4.905-1.594l-0.021,0.065c-0.966,2.976,0.662,6.173,3.638,7.139l4.904,1.595l0.022-0.065
	C143.812,112.717,142.184,109.522,139.208,108.555"/>
<path fill="#4AA948" d="M135.08,121.26l-4.906-1.593l0.021-0.065c0.967-2.976,4.165-4.604,7.141-3.637l4.904,1.593l-0.022,0.065
	C141.251,120.599,138.055,122.229,135.08,121.26"/>
<path fill="#4AA948" d="M128.514,109.055c-2.299-0.745-4.702-0.258-6.491,1.1c0.648,2.154,2.305,3.96,4.603,4.706
	c2.3,0.746,4.705,0.258,6.494-1.1C132.469,111.611,130.813,109.803,128.514,109.055"/>
<path fill="#4AA948" d="M176.998,110.717l6.169-2.006l0.027,0.084c1.216,3.742-0.833,7.762-4.577,8.976l-6.166,2.006l-0.026-0.084
	C171.208,115.953,173.255,111.933,176.998,110.717"/>
<path fill="#4AA948" d="M182.191,126.695l6.166-2.004l-0.025-0.084c-1.217-3.742-5.237-5.787-8.979-4.573l-6.167,2.004l0.027,0.083
	C174.428,125.863,178.449,127.912,182.191,126.695"/>
<path fill="#4AA948" d="M189.22,108.555l4.904-1.594l0.021,0.065c0.967,2.976-0.662,6.173-3.639,7.139l-4.904,1.595l-0.022-0.065
	C184.615,112.717,186.243,109.522,189.22,108.555"/>
<path fill="#4AA948" d="M193.349,121.26l4.902-1.593l-0.021-0.065c-0.967-2.976-4.163-4.604-7.139-3.637l-4.904,1.593l0.021,0.065
	C187.174,120.599,190.373,122.229,193.349,121.26"/>
<path fill="#4AA948" d="M199.912,109.055c2.301-0.745,4.703-0.258,6.493,1.1c-0.649,2.154-2.306,3.96-4.604,4.706
	c-2.302,0.746-4.702,0.258-6.493-1.1C195.958,111.611,197.614,109.803,199.912,109.055"/>
<path fill="#4AA948" d="M172.614,106.576v-6.484h-0.085c-3.936,0-7.125,3.19-7.125,7.127v6.484h0.084
	C169.423,113.703,172.614,110.514,172.614,106.576"/>
<path fill="#4AA948" d="M155.812,106.576v-6.484h0.087c3.936,0,7.126,3.19,7.126,7.127v6.484h-0.086
	C159.003,113.703,155.812,110.514,155.812,106.576"/>
<path fill="#4AA948" d="M170.894,94.287v-5.156h-0.068c-3.131,0-5.665,2.535-5.665,5.664v5.156h0.069
	C168.357,99.951,170.894,97.416,170.894,94.287"/>
<path fill="#4AA948" d="M157.534,94.287v-5.156h0.068c3.129,0,5.666,2.535,5.666,5.664v5.156h-0.067
	C160.071,99.951,157.534,97.416,157.534,94.287"/>
<path fill="#4AA948" d="M167.113,84.271c0-2.417-1.208-4.552-3.053-5.833c-1.845,1.281-3.053,3.416-3.053,5.833
	c0,2.417,1.208,4.551,3.053,5.834C165.905,88.822,167.113,86.688,167.113,84.271"/>
<path fill="#4AA948" d="M147.682,132.611l-3.812,5.246l0.07,0.051c3.183,2.313,7.639,1.606,9.951-1.577l3.812-5.245l-0.069-0.051
	C154.451,128.721,149.995,129.426,147.682,132.611"/>
<path fill="#4AA948" d="M161.273,142.484l-3.812,5.248l-0.07-0.05c-3.183-2.315-3.889-6.77-1.576-9.953l3.812-5.247l0.071,0.05
	C162.881,134.846,163.586,139.302,161.273,142.484"/>
<path fill="#4AA948" d="M141.848,143.566l-3.031,4.171l0.056,0.038c2.532,1.842,6.075,1.281,7.915-1.251l3.031-4.172l-0.055-0.039
	C147.231,140.471,143.688,141.033,141.848,143.566"/>
<path fill="#4AA948" d="M152.658,151.418l-3.033,4.172l-0.056-0.041c-2.531-1.838-3.091-5.383-1.252-7.914l3.031-4.17l0.056,0.038
	C153.934,145.342,154.497,148.887,152.658,151.418"/>
<path fill="#4AA948" d="M139.021,153.89c-1.422,1.956-1.698,4.393-0.96,6.514c2.247,0.045,4.478-0.97,5.899-2.925
	c1.421-1.956,1.698-4.393,0.96-6.514C142.673,150.918,140.441,151.934,139.021,153.89"/>
<path fill="#4AA948" d="M180.746,132.611l3.813,5.246l-0.07,0.051c-3.183,2.313-7.639,1.606-9.953-1.577l-3.811-5.245l0.069-0.051
	C173.976,128.721,178.433,129.426,180.746,132.611"/>
<path fill="#4AA948" d="M167.155,142.484l3.812,5.248l0.068-0.05c3.184-2.315,3.89-6.77,1.577-9.953l-3.813-5.247l-0.069,0.05
	C165.548,134.846,164.84,139.302,167.155,142.484"/>
<path fill="#4AA948" d="M186.58,143.566l3.031,4.171l-0.058,0.038c-2.53,1.842-6.073,1.281-7.913-1.251l-3.031-4.172l0.055-0.039
	C181.196,140.471,184.74,141.033,186.58,143.566"/>
<path fill="#4AA948" d="M175.769,151.418l3.032,4.172l0.056-0.041c2.531-1.838,3.094-5.383,1.254-7.914l-3.031-4.17l-0.056,0.038
	C174.492,145.342,173.931,148.887,175.769,151.418"/>
<path fill="#4AA948" d="M189.407,153.89c1.422,1.956,1.698,4.393,0.96,6.514c-2.246,0.045-4.479-0.97-5.899-2.925
	c-1.421-1.956-1.698-4.393-0.961-6.514C185.755,150.918,187.986,151.934,189.407,153.89"/>
<path fill="#FFFFFF" d="M155.254,127.002c0.042,0.134,0.169,0.227,0.31,0.227h6.407l1.979,6.091c0.042,0.135,0.17,0.227,0.311,0.227
	c0.141,0,0.269-0.092,0.312-0.227l1.979-6.091h6.406c0.141,0,0.267-0.091,0.311-0.227c0.043-0.133-0.004-0.283-0.119-0.365
	l-5.182-3.766l1.979-6.09c0.046-0.136-0.004-0.285-0.117-0.368c-0.115-0.083-0.27-0.083-0.385,0l-5.184,3.765l-5.182-3.765
	c-0.057-0.042-0.123-0.063-0.192-0.063c-0.068,0-0.136,0.021-0.194,0.063c-0.113,0.083-0.162,0.232-0.116,0.366l1.979,6.092
	l-5.184,3.766C155.258,126.719,155.21,126.867,155.254,127.002"/>
<polygon fill="#FFFFFF" points="58.611,130.475 55.523,130.475 53.148,123.813 52.935,132.135 50.445,132.135 51.025,119.275 
	53.746,119.275 57.067,128.408 60.389,119.275 63.111,119.275 63.69,132.135 61.199,132.135 60.987,123.813 "/>
<path fill="#FFFFFF" d="M61.128,132.207l-0.203-8l-2.243,6.291l-0.019,0.048H55.47l-2.26-6.339l-0.204,8h-2.638l0.587-13.006h2.842
	l3.27,8.992l3.269-8.99h2.845l0.584,13.004H61.128z M61.06,123.813l0.21,8.248h2.342l-0.572-12.712h-2.601l-3.373,9.274
	l-3.371-9.274h-2.6l-0.574,12.712h2.343l0.21-8.248l0.143-0.024l2.357,6.611h2.986l2.357-6.611L61.06,123.813z M58.611,130.475
	V130.4V130.475z"/>
<path fill="#FFFFFF" d="M68.322,119.275h5.019c2.973,0,4.073,1.216,4.073,3.477v1.756c0,2.24-1.196,3.456-4.189,3.456h-2.472v4.171
	h-2.431V119.275z M73.206,121.42h-2.453v4.4h2.453c1.371,0,1.776-0.502,1.776-1.564v-1.313
	C74.982,121.882,74.538,121.42,73.206,121.42"/>
<path fill="#FFFFFF" d="M68.247,132.209v-12.934v-0.072h5.093c1.496,0,2.535,0.304,3.202,0.908c0.667,0.606,0.947,1.5,0.947,2.641
	v1.756c-0.005,2.271-1.254,3.526-4.264,3.527h-2.398v4.174H68.247z M68.393,132.061h2.288v-4.169h2.544
	c2.975-0.015,4.106-1.176,4.116-3.384v-1.756c-0.012-2.232-1.046-3.389-4.001-3.403h-4.947V132.061z M70.679,125.893v-4.547h2.527
	v0.074v0.072h-2.379v4.255h2.379c1.354-0.018,1.687-0.45,1.702-1.491v-1.313c-0.014-1.035-0.385-1.435-1.702-1.451v-0.072v-0.074
	c0.672,0,1.136,0.115,1.436,0.383c0.3,0.269,0.414,0.677,0.414,1.214v1.313c0,0.539-0.102,0.955-0.397,1.234
	c-0.296,0.278-0.761,0.403-1.453,0.403H70.679z"/>
<polygon fill="#FFFFFF" points="83.803,129.992 89.094,129.992 89.094,132.135 81.372,132.135 81.372,119.275 83.803,119.275 "/>
<path fill="#FFFFFF" d="M81.298,132.209v-13.006h2.578v10.715h5.291v2.291H81.298z M81.444,132.061h7.577v-1.997h-5.218H83.73
	v-10.716h-2.286V132.061z"/>
<path fill="#FFFFFF" d="M96.545,132.328c-1.468,0-3.167-0.367-4.017-0.773l0.426-1.91c1.197,0.365,2.355,0.597,3.629,0.597
	c1.757,0,2.047-0.365,2.047-1.601c0-1.43-0.039-1.545-2.356-2.048c-3.108-0.695-3.533-1.294-3.533-4.015
	c0-2.338,1.062-3.496,4.326-3.496c1.12,0,2.472,0.135,3.745,0.425l-0.27,2.046c-1.062-0.231-2.317-0.385-3.437-0.385
	c-1.641,0-1.931,0.348-1.931,1.468c0,1.466,0.038,1.505,2.26,2.046c3.455,0.83,3.628,1.39,3.628,3.959
	C101.062,131.072,100.349,132.328,96.545,132.328"/>
<path fill="#FFFFFF" d="M92.498,131.62l-0.054-0.024l0.455-2.045l0.076,0.023c1.193,0.364,2.343,0.596,3.608,0.596
	c1.756-0.025,1.952-0.311,1.975-1.531c-0.023-1.422,0.029-1.446-2.3-1.976c-3.113-0.675-3.609-1.356-3.59-4.085
	c-0.001-1.178,0.268-2.08,0.964-2.682c0.697-0.598,1.795-0.886,3.435-0.886c1.125,0,2.48,0.135,3.76,0.426l0.065,0.015l-0.289,2.192
	l-0.077-0.018c-1.056-0.23-2.309-0.385-3.422-0.385c-1.638,0.024-1.837,0.293-1.856,1.395c0.022,1.463-0.032,1.406,2.202,1.976
	c3.458,0.809,3.706,1.459,3.685,4.028c0,1.221-0.178,2.17-0.855,2.81c-0.678,0.639-1.827,0.951-3.735,0.951v-0.072v-0.074
	c3.79-0.019,4.426-1.198,4.445-3.615c-0.021-2.567-0.121-3.034-3.575-3.887c-2.206-0.512-2.337-0.645-2.314-2.117
	c0-0.562,0.071-0.959,0.375-1.21c0.308-0.248,0.804-0.329,1.628-0.331c1.101,0,2.326,0.148,3.377,0.371l0.249-1.901
	c-1.249-0.279-2.568-0.41-3.663-0.41c-3.25,0.016-4.239,1.114-4.254,3.424c0.019,2.715,0.373,3.229,3.477,3.944
	c2.305,0.473,2.436,0.684,2.413,2.117c0,0.621-0.07,1.049-0.39,1.322c-0.32,0.266-0.847,0.353-1.73,0.355
	c-1.256,0-2.4-0.225-3.575-0.579l-0.395,1.776c0.849,0.389,2.508,0.743,3.932,0.741v0.074v0.072
	C95.065,132.4,93.363,132.033,92.498,131.62"/>
<polygon fill="#FFFFFF" points="237.875,130.475 234.786,130.475 232.411,123.813 232.199,132.135 229.708,132.135 230.288,119.275 
	233.009,119.275 236.33,128.408 239.651,119.275 242.375,119.275 242.953,132.135 240.462,132.135 240.25,123.813 "/>
<path fill="#FFFFFF" d="M240.39,132.207l-0.203-8l-2.244,6.291l-0.016,0.048h-3.193l-2.261-6.339l-0.204,8h-2.639l0.588-13.006
	h2.842l3.269,8.992l3.27-8.99h2.844l0.586,13.004H240.39z M240.324,123.813l0.209,8.248h2.344l-0.572-12.712h-2.602l-3.373,9.274
	l-3.373-9.274h-2.6l-0.572,12.712h2.342l0.211-8.248l0.141-0.024l2.359,6.611h2.984l2.357-6.611L240.324,123.813z M237.875,130.475
	V130.4V130.475z"/>
<rect x="247.681" y="119.275" fill="#FFFFFF" width="2.432" height="12.86"/>
<path fill="#FFFFFF" d="M247.606,132.209v-13.006h2.58v12.932v0.074H247.606z M250.113,132.135v-0.074V132.135z M247.753,132.061
	h2.285v-12.713h-2.285V132.061z"/>
<polygon fill="#FFFFFF" points="257.412,122.385 257.412,132.135 255.037,132.135 255.037,119.275 258.28,119.275 263.164,129.045 
	263.164,119.275 265.539,119.275 265.539,132.135 262.296,132.135 "/>
<path fill="#FFFFFF" d="M262.25,132.207l-4.766-9.516v9.516h-2.521v-13.004h3.363l4.766,9.532v-9.534h2.521v13.006H262.25z
	 M262.34,132.061h3.125v-12.712h-2.228v9.696l-0.139,0.033l-4.865-9.729h-3.125v12.712h2.228v-9.676l0.14-0.033L262.34,132.061z
	 M257.346,122.416l0.065-0.031L257.346,122.416z"/>
<polygon fill="#FFFFFF" points="272.739,122.385 272.739,132.135 270.364,132.135 270.364,119.275 273.608,119.275 278.493,129.045 
	278.493,119.275 280.868,119.275 280.868,132.135 277.623,132.135 "/>
<path fill="#FFFFFF" d="M277.577,132.207l-4.765-9.516v9.516h-2.522v-13.004h3.362l4.767,9.532v-9.534h2.52v13.006H277.577z
	 M277.668,132.061h3.125v-12.712h-2.228v9.696l-0.141,0.033l-4.864-9.729h-3.124v12.712h2.227v-9.676l0.141-0.033L277.668,132.061z
	 M272.673,122.416l0.064-0.031L272.673,122.416z"/>
</svg>
